<svg width="27" height="29" viewBox="0 0 27 29" fill="none" xmlns="http://www.w3.org/2000/svg">
<path d="M23.5385 27.4411H3.25438C2.94311 27.443 2.64217 27.3295 2.40965 27.1225C2.17713 26.9156 2.02952 26.6299 1.99528 26.3205L1.0006 11.3939C0.995361 11.2271 1.02433 11.061 1.08575 10.9059C1.14717 10.7508 1.23972 10.6099 1.3577 10.4919C1.47568 10.3739 1.6166 10.2813 1.77173 10.2199C1.92686 10.1585 2.09294 10.1295 2.2597 10.1348H24.7409C25.0748 10.1348 25.3951 10.2674 25.6312 10.5036C25.8673 10.7397 26 11.0599 26 11.3939L24.7976 26.3331C24.7604 26.6402 24.6116 26.9229 24.3793 27.1272C24.1471 27.3316 23.8478 27.4433 23.5385 27.4411V27.4411Z" stroke="white" stroke-width="2" stroke-linecap="round" stroke-linejoin="round"/>
<path d="M7.20154 14.2205V7.29549C7.20154 5.62582 7.86483 4.02454 9.04546 2.8439C10.2261 1.66327 11.8274 1 13.497 1C15.1667 1 16.768 1.66327 17.9486 2.8439C19.1293 4.02454 19.7925 5.62582 19.7925 7.29549V14.2205" stroke="white" stroke-width="2" stroke-linecap="round" stroke-linejoin="round"/>
</svg>
