<svg width="30" height="24" viewBox="0 0 30 24" fill="none" xmlns="http://www.w3.org/2000/svg">
<g clip-path="url(#clip0_91_208)">
<path d="M23.1738 2.14404L15.0369 8.72182L6.71399 2.14404V2.14582L6.72404 2.15471V11.3654L14.943 18.0854L23.1738 11.6249V2.14404Z" fill="#EA4335"/>
<path d="M25.3106 0.543949L23.1737 2.14395V11.6248L29.8977 6.27728V3.05595C29.8977 3.05595 29.0815 -1.54494 25.3106 0.543949Z" fill="#FBBC05"/>
<path d="M23.1737 11.6249V23.9218H28.3273C28.3273 23.9218 29.7938 23.7654 29.8994 22.0338V6.27734L23.1737 11.6249Z" fill="#34A853"/>
<path d="M6.72404 23.9325V11.3653L6.71399 11.3564L6.72404 23.9325Z" fill="#C5221F"/>
<path d="M6.71397 2.14572L4.58883 0.554607C0.817877 -1.53428 0 3.06483 0 3.06483V6.28616L6.71397 11.3564V2.14572Z" fill="#C5221F"/>
<path d="M6.71399 2.14575V11.3564L6.72404 11.3653V2.15464L6.71399 2.14575Z" fill="#C5221F"/>
<path d="M0 6.28784V22.0443C0.103911 23.7777 1.57207 23.9323 1.57207 23.9323H6.7257L6.71397 11.3563L0 6.28784Z" fill="#4285F4"/>
</g>
<defs>
<clipPath id="clip0_91_208">
<rect width="30" height="24" fill="white"/>
</clipPath>
</defs>
</svg>
