<svg width="24" height="23" viewBox="0 0 24 23" fill="none" xmlns="http://www.w3.org/2000/svg">
<path d="M16.8747 15.046C15.6048 16.6569 13.805 17.7659 11.795 18.176C9.78492 18.5861 7.69453 18.2709 5.89488 17.2862C4.09522 16.3016 2.70271 14.7112 1.96451 12.7974C1.22631 10.8836 1.19018 8.77018 1.86254 6.83228C2.53489 4.89438 3.87224 3.25736 5.63719 2.21178C7.40214 1.1662 9.48052 0.779686 11.5034 1.12088C13.5263 1.46207 15.3629 2.50888 16.6872 4.0755C18.0114 5.64211 18.7376 7.62721 18.737 9.6784C18.7366 10.2903 18.6721 10.9004 18.5445 11.4988" stroke="white" stroke-width="2" stroke-linecap="round" stroke-linejoin="round"/>
<path d="M16.2556 15.873L22.3835 22" stroke="white" stroke-width="2" stroke-miterlimit="10" stroke-linecap="round"/>
</svg>
